<svg version="1.1" id="Layer_1" xmlns="http://www.w3.org/2000/svg" xmlns:xlink="http://www.w3.org/1999/xlink" x="0px" y="0px"
	 width="100%" viewBox="0 0 824 266" enable-background="new 0 0 824 266" xml:space="preserve">
<path fill="#DB66FD" opacity="1.000000" stroke="none" 
	d="
M60.988014,102.918350 
	C60.988018,102.918350 61.040997,102.452682 61.286694,102.076218 
	C61.757542,101.474930 61.908810,101.208191 61.986198,100.899559 
	C63.282631,98.821007 64.579063,96.742455 66.376724,94.324966 
	C69.240036,90.957649 71.602104,87.929268 73.964172,84.900887 
	C73.964172,84.900887 73.959358,84.977463 74.266983,84.920441 
	C75.432762,83.624519 76.290909,82.385605 77.149055,81.146690 
	C87.352364,71.941673 98.897041,65.103355 112.206947,61.450905 
	C113.761818,61.024220 115.468056,61.149136 117.541351,61.378002 
	C117.519432,63.326694 117.190285,64.967529 116.580856,66.496651 
	C111.035027,80.412071 110.226624,94.699654 113.839317,109.116028 
	C123.027130,145.779831 159.278320,169.121216 197.450104,163.328857 
	C203.986633,162.336960 210.380554,160.405228 216.840347,158.907654 
	C217.149994,166.230957 213.569565,172.319336 210.027786,178.166626 
	C206.509842,183.974533 202.351242,189.494476 197.819733,194.555237 
	C194.480042,198.284927 190.347687,201.478317 186.107208,204.188965 
	C179.045975,208.702728 172.023056,213.824432 164.232132,216.504196 
	C155.328827,219.566513 145.615585,221.529449 136.232727,221.615372 
	C125.209389,221.716339 114.029053,219.925400 103.152916,214.783295 
	C102.035759,214.288773 101.479691,214.156357 100.923630,214.023926 
	C100.923630,214.023926 100.991608,214.019562 100.925430,213.693787 
	C98.210953,212.259750 95.562660,211.151474 92.914360,210.043198 
	C92.914360,210.043198 92.984077,210.033447 92.942505,209.712463 
	C89.276573,206.958694 85.652206,204.525925 82.027847,202.093140 
	C77.846275,198.337189 73.268234,194.927231 69.599701,190.723541 
	C66.234535,186.867462 63.850365,182.155273 61.016876,177.064880 
	C59.320568,172.874725 57.641350,169.439957 55.962128,166.005203 
	C55.962128,166.005203 55.999317,165.992493 56.004456,165.742889 
	C56.003963,165.314697 55.998333,165.136108 55.992706,164.957520 
	C55.992706,164.957520 56.041248,164.502014 56.232132,164.031311 
	C56.350266,162.457932 56.463593,161.304092 56.176674,160.260284 
	C52.250622,145.977280 51.539978,131.762802 56.566494,117.539726 
	C58.261318,112.744034 59.526485,107.796494 60.988014,102.918350 
z"/>
<path fill="#181C6D" opacity="1.000000" stroke="none" 
	d="
M31.969624,79.069000 
	C32.021904,77.974541 32.074184,76.880074 32.343941,75.163017 
	C32.697014,74.001953 32.832611,73.463486 32.968208,72.925018 
	C34.263573,56.677731 49.087513,36.981342 67.748550,34.311676 
	C76.973572,32.991940 86.301308,34.130081 93.351639,41.892761 
	C97.143700,46.067966 101.315376,49.898392 105.895088,54.461613 
	C102.950294,55.830795 100.533447,57.034710 98.055023,58.094639 
	C67.898079,70.991646 49.945412,94.204521 44.443565,125.907379 
	C39.444347,154.713989 47.707623,180.575516 68.325638,201.863007 
	C83.242096,217.263794 101.360916,226.161057 122.727646,229.172943 
	C140.193954,231.635056 157.185883,229.230698 172.772781,222.476181 
	C194.772598,212.942657 212.084747,197.358292 221.379349,174.340851 
	C221.626709,173.728302 221.962387,173.133362 222.356277,172.604187 
	C222.634354,172.230637 223.080795,171.982376 223.435989,171.691360 
	C240.996033,183.914124 243.871475,204.850845 235.893188,223.185547 
	C231.905121,232.350433 225.312958,239.149567 217.016418,244.444016 
	C216.378601,244.851028 215.452362,244.806107 213.818924,244.985611 
	C167.334381,245.009033 121.691109,245.018097 76.047836,245.027161 
	C66.885094,245.797913 59.173820,241.879333 52.132149,236.850632 
	C40.828850,228.778549 33.062096,218.282318 32.321262,203.209091 
	C32.402386,202.087250 32.291767,201.553268 32.181145,201.019272 
	C32.144588,200.840790 32.108036,200.662323 32.051201,199.970657 
	C32.030926,199.457474 32.160915,198.983521 32.380486,198.636230 
	C32.731148,197.309982 32.976276,196.331085 32.976860,195.352066 
	C32.998829,158.340652 33.007713,121.329216 32.965321,84.317833 
	C32.963680,82.883583 32.440937,81.449913 32.089119,79.784088 
	C32.017227,79.552208 31.969625,79.069000 31.969624,79.069000 
z"/>
<path fill="#333333" opacity="1.000000" stroke="none" 
	d="
M289.031372,212.005127 
	C288.837891,211.995438 288.644440,211.985764 288.208344,211.480515 
	C287.981903,157.966766 287.998138,104.948578 288.014404,51.930393 
	C288.014404,51.930393 288.005707,52.011612 288.438538,52.006500 
	C310.566711,51.999298 332.262085,51.997211 353.957428,51.995125 
	C377.285614,51.139553 397.311859,59.467041 413.230347,75.941528 
	C432.620270,96.008698 439.857605,120.479889 434.413300,148.122223 
	C429.444244,173.351593 415.115417,191.814346 392.266724,203.361191 
	C380.305359,209.406006 367.474335,212.711838 352.937225,211.990555 
	C331.014862,211.985947 310.023102,211.995529 289.031372,212.005127 
M310.559998,192.561493 
	C324.910583,192.652466 339.261139,192.749802 353.611877,192.803162 
	C354.032928,192.804718 354.455688,192.342407 355.770203,191.992508 
	C370.668976,191.320709 384.171112,186.759583 395.035675,176.353561 
	C414.094849,158.098831 418.675110,129.613281 407.402679,106.063904 
	C396.949005,84.224930 378.915802,73.141563 354.204620,71.316513 
	C340.141602,71.225090 326.078644,71.119278 312.015503,71.085770 
	C311.329956,71.084137 310.642944,71.716515 309.965942,71.964279 
	C309.965942,71.964279 310.055725,71.968643 309.422058,72.532570 
	C309.283447,73.512756 309.024231,74.492867 309.023621,75.473137 
	C309.000549,112.948967 308.989899,150.424820 309.043152,187.900589 
	C309.045105,189.281250 309.702423,190.660980 309.974060,192.033966 
	C309.974060,192.033966 309.976990,191.953384 310.559998,192.561493 
z"/>
<path fill="#7640F1" opacity="1.000000" stroke="none" 
	d="
M216.968475,158.668060 
	C210.380554,160.405228 203.986633,162.336960 197.450104,163.328857 
	C159.278320,169.121216 123.027130,145.779831 113.839317,109.116028 
	C110.226624,94.699654 111.035027,80.412071 116.580856,66.496651 
	C117.190285,64.967529 117.519432,63.326694 117.967155,61.347572 
	C117.955734,60.957466 117.974876,61.005157 118.164047,60.859810 
	C118.566986,60.457695 118.780762,60.200935 118.994530,59.944176 
	C118.994530,59.944176 119.002220,59.999435 119.398560,59.977966 
	C127.186256,59.629803 134.607529,58.713371 141.963364,59.086666 
	C164.302460,60.220341 182.943436,69.342018 198.317078,85.693573 
	C211.614609,99.836967 218.239716,116.771034 219.794571,135.665451 
	C220.393295,142.940964 218.638260,150.410172 217.955658,157.791138 
	C217.669296,158.003586 217.382950,158.216019 216.968475,158.668060 
z"/>
<path fill="#7D60F1" opacity="1.000000" stroke="none" 
	d="
M218.312607,157.775238 
	C218.638260,150.410172 220.393295,142.940964 219.794571,135.665451 
	C218.239716,116.771034 211.614609,99.836967 198.317078,85.693573 
	C182.943436,69.342018 164.302460,60.220341 141.963364,59.086666 
	C134.607529,58.713371 127.186256,59.629803 119.373428,59.965862 
	C124.166023,53.272461 129.034683,46.261215 134.678238,39.942028 
	C142.395432,31.300976 152.764923,26.524876 163.599106,23.327209 
	C184.017609,17.300766 204.115250,19.177856 222.693115,29.495445 
	C243.016693,40.782555 256.163361,57.842216 259.986298,81.340157 
	C264.416077,108.568054 254.434311,130.328354 234.315781,147.951065 
	C229.744202,151.955505 223.918167,154.527817 218.312607,157.775238 
z"/>
<path fill="#343434" opacity="1.000000" stroke="none" 
	d="
M547.225769,97.627411 
	C577.650513,115.103256 584.722046,149.767242 573.132568,177.355316 
	C563.489441,200.310242 544.879517,211.232666 520.132935,212.713150 
	C504.454681,213.651123 490.076935,210.477600 477.244324,201.503571 
	C464.958588,192.911987 456.766602,181.489197 454.938385,166.163284 
	C453.258362,152.079407 452.866913,138.201675 458.791748,124.740288 
	C462.572052,116.151291 468.220398,109.142303 475.412872,103.467957 
	C481.878418,98.367111 488.807800,93.997406 497.222809,92.261787 
	C509.233185,89.784622 521.141602,89.294083 533.016418,92.501755 
	C537.759460,93.782959 542.326782,95.714836 547.225769,97.627411 
M477.026306,139.826645 
	C474.878906,147.103531 474.416595,154.552750 476.178894,161.869614 
	C478.564362,171.773987 482.424042,180.883789 491.378662,187.062592 
	C502.894257,195.008530 515.374512,196.593857 528.349915,192.524185 
	C536.589050,189.940033 544.246460,185.519440 548.948792,177.812698 
	C557.401001,163.960083 558.774597,149.187012 552.680847,134.148956 
	C546.336853,118.493576 534.491516,110.195709 518.301392,109.083786 
	C502.736511,108.014816 482.327789,116.660027 477.026306,139.826645 
z"/>
<path fill="#343434" opacity="1.000000" stroke="none" 
	d="
M709.163452,111.032516 
	C706.967896,111.111717 704.772278,111.190918 701.937134,111.462944 
	C701.223145,132.810745 701.142395,153.965698 701.108521,175.120758 
	C701.107605,175.692505 701.614075,176.265091 701.883972,176.837280 
	C702.611145,187.664429 706.335510,193.319550 714.981201,193.496185 
	C720.315674,193.605148 725.914124,191.271957 730.999023,189.107208 
	C733.952026,187.850021 735.100952,187.818863 736.113098,190.819748 
	C737.169189,193.950699 738.215149,197.116302 739.649902,200.080704 
	C741.603271,204.116547 740.013611,205.821915 736.303101,207.541428 
	C722.903259,213.751083 709.312988,215.997513 695.562561,209.370270 
	C686.321533,204.916382 680.814819,197.544052 680.936829,186.671555 
	C680.981018,182.728928 680.328430,178.778458 679.995239,173.909317 
	C679.991455,156.020233 679.986206,139.053391 679.980957,122.086555 
	C680.061707,110.530617 680.658569,112.085220 669.790527,112.006737 
	C663.009766,111.957764 663.009583,111.990646 663.002869,105.306213 
	C662.992554,95.002869 662.992554,95.003159 673.146240,95.000412 
	C674.806030,94.999962 676.465759,94.995613 678.988525,94.795349 
	C679.897095,84.417755 679.942627,74.237885 679.988159,64.058014 
	C682.485474,63.706261 684.972595,63.207848 687.482178,63.035316 
	C691.817139,62.737301 696.166138,62.641644 700.754395,63.213085 
	C700.998413,72.107330 700.930725,80.250465 701.039856,88.391220 
	C701.069336,90.594490 701.633728,92.790588 701.952637,94.989983 
	C712.542603,94.994766 723.134033,95.101357 733.721802,94.949608 
	C737.472778,94.895851 739.347656,96.058876 739.021545,100.052597 
	C738.740479,103.495636 738.702209,106.958496 737.795532,110.701859 
	C727.744202,111.004913 718.453796,111.018715 709.163452,111.032516 
z"/>
<path fill="#333333" opacity="1.000000" stroke="none" 
	d="
M610.187988,51.940338 
	C616.844238,51.978287 623.500549,52.016239 630.601929,52.551353 
	C631.032288,68.839554 631.022644,84.630600 631.001648,100.421631 
	C630.952209,137.653946 630.897400,174.886261 630.844727,212.118576 
	C624.080505,212.271072 617.316223,212.423553 610.274414,211.796082 
	C609.989990,185.582047 609.952942,160.147964 609.984619,134.713959 
	C610.018982,107.122704 610.117493,79.531540 610.187988,51.940338 
z"/>
<path fill="#333333" opacity="1.000000" stroke="none" 
	d="
M782.881531,94.840248 
	C782.254333,107.420860 781.586670,119.999619 781.013672,132.582703 
	C780.606018,141.532913 780.261902,150.487274 780.029541,159.443436 
	C779.964172,161.961960 779.060242,162.864990 776.504089,163.045486 
	C765.006531,163.857376 765.367920,163.918854 764.917114,152.439194 
	C764.228577,134.903473 762.677612,117.399902 762.085083,99.862679 
	C761.607483,85.726303 761.921082,71.558823 762.174011,57.410332 
	C762.194702,56.255402 764.389526,54.255890 765.683105,54.162670 
	C770.817444,53.792690 775.995178,54.024200 781.587036,54.520737 
	C782.001404,66.761238 781.952393,78.513992 782.010376,90.266235 
	C782.017883,91.792297 782.577576,93.315643 782.881531,94.840248 
z"/>
<path fill="#363636" opacity="1.000000" stroke="none" 
	d="
M780.771545,211.878448 
	C776.731689,212.851746 772.803589,214.632492 769.253113,214.062164 
	C761.386902,212.798599 757.955872,205.547882 760.167175,196.816315 
	C761.467957,191.680130 768.687744,187.070587 773.943726,188.020493 
	C781.114868,189.316528 786.304871,196.514648 784.753296,203.697235 
	C784.153381,206.474609 782.323975,208.986404 780.771545,211.878448 
z"/>
<path fill="#656565" opacity="1.000000" stroke="none" 
	d="
M631.144104,212.319611 
	C630.897400,174.886261 630.952209,137.653946 631.001648,100.421631 
	C631.022644,84.630600 631.032288,68.839554 631.075500,52.590328 
	C631.404785,53.521107 631.967590,54.909874 631.968689,56.299080 
	C632.009216,107.430969 632.000671,158.562912 631.970459,209.694824 
	C631.969910,210.636856 631.626709,211.578705 631.144104,212.319611 
z"/>
<path fill="#C8C8C8" opacity="1.000000" stroke="none" 
	d="
M609.969360,51.601402 
	C610.117493,79.531540 610.018982,107.122704 609.984619,134.713959 
	C609.952942,160.147964 609.989990,185.582047 609.993835,211.481293 
	C609.661133,210.792358 609.043884,209.638504 609.042847,208.484055 
	C608.994751,156.929428 608.997314,105.374756 609.031799,53.820095 
	C609.032349,52.967392 609.500671,52.115002 609.969360,51.601402 
z"/>
<path fill="#B4B4B4" opacity="1.000000" stroke="none" 
	d="
M287.622742,52.134926 
	C287.998138,104.948578 287.981903,157.966766 287.919922,211.445557 
	C287.584045,210.723633 287.041199,209.541306 287.040192,208.358505 
	C286.996063,157.174713 286.998901,105.990898 287.007721,54.807083 
	C287.007874,53.984531 287.153412,53.162003 287.622742,52.134926 
z"/>
<path fill="#7074A0" opacity="1.000000" stroke="none" 
	d="
M76.263046,245.398315 
	C121.691109,245.018097 167.334381,245.009033 213.439087,244.990707 
	C212.735687,245.326645 211.571198,245.972412 210.406036,245.973633 
	C166.422760,246.019974 122.439415,246.007996 78.456078,245.992294 
	C77.796783,245.992065 77.137535,245.846954 76.263046,245.398315 
z"/>
<path fill="#CD75E7" opacity="1.000000" stroke="none" 
	d="
M60.659912,103.067451 
	C59.526485,107.796494 58.261318,112.744034 56.566494,117.539726 
	C51.539978,131.762802 52.250622,145.977280 56.176674,160.260284 
	C56.463593,161.304092 56.350266,162.457932 56.192410,163.805740 
	C54.321621,158.348343 51.672726,152.721725 51.236778,146.928574 
	C50.084488,131.616241 52.592022,116.805656 60.659912,103.067451 
z"/>
<path fill="#BEBEE3" opacity="1.000000" stroke="none" 
	d="
M32.160915,198.983521 
	C32.160915,198.983521 32.030926,199.457474 32.002800,199.701721 
	C31.647026,199.306091 31.032522,198.666138 31.032728,198.026382 
	C31.045401,158.485886 31.108347,118.945412 31.568138,79.236969 
	C31.969625,79.069000 32.017227,79.552208 32.021816,80.248116 
	C32.071239,120.290520 32.116077,159.637024 32.160915,198.983521 
z"/>
<path fill="#9B9B9B" opacity="1.000000" stroke="none" 
	d="
M353.770935,51.602264 
	C332.262085,51.997211 310.566711,51.999298 288.397888,52.002789 
	C288.600342,51.673763 289.276520,51.054367 289.952271,51.054825 
	C311.162994,51.069202 332.373718,51.143909 353.770935,51.602264 
z"/>
<path fill="#9B9B9B" opacity="1.000000" stroke="none" 
	d="
M701.916992,176.380219 
	C701.614075,176.265091 701.107605,175.692505 701.108521,175.120758 
	C701.142395,153.965698 701.223145,132.810745 701.577576,111.349182 
	C701.888428,132.669449 701.919250,154.296295 701.916992,176.380219 
z"/>
<path fill="#C8C8C8" opacity="1.000000" stroke="none" 
	d="
M289.186768,212.417282 
	C310.023102,211.995529 331.014862,211.985947 352.470886,211.993683 
	C352.296844,212.342102 351.658447,212.962540 351.020233,212.962311 
	C330.460876,212.954971 309.901550,212.887711 289.186768,212.417282 
z"/>
<path fill="#FFFFFF" opacity="1.000000" stroke="none" 
	d="
M679.567749,122.231743 
	C679.986206,139.053391 679.991455,156.020233 679.988770,173.450165 
	C679.654785,173.284775 679.044067,172.656296 679.044006,172.027756 
	C679.042358,155.477478 679.103821,138.927200 679.567749,122.231743 
z"/>
<path fill="#9B9B9B" opacity="1.000000" stroke="none" 
	d="
M782.946167,94.385826 
	C782.577576,93.315643 782.017883,91.792297 782.010376,90.266235 
	C781.952393,78.513992 782.001404,66.761238 782.061462,54.547516 
	C782.404419,55.596188 782.952820,57.104404 782.962402,58.616028 
	C783.036926,70.387444 783.007812,82.159531 782.946167,94.385826 
z"/>
<path fill="#9B9B9B" opacity="1.000000" stroke="none" 
	d="
M701.972900,94.522369 
	C701.633728,92.790588 701.069336,90.594490 701.039856,88.391220 
	C700.930725,80.250465 700.998413,72.107330 701.001587,63.498547 
	C701.335815,64.508331 701.940796,65.981949 701.955444,67.461426 
	C702.043457,76.325127 701.995605,85.190178 701.972900,94.522369 
z"/>
<path fill="#F3F3F3" opacity="1.000000" stroke="none" 
	d="
M679.571655,64.201660 
	C679.942627,74.237885 679.897095,84.417755 679.460266,94.789589 
	C679.097717,84.769470 679.126465,74.557396 679.571655,64.201660 
z"/>
<path fill="#C8C8C8" opacity="1.000000" stroke="none" 
	d="
M709.351440,111.412430 
	C718.453796,111.018715 727.744202,111.004913 737.501099,110.998161 
	C736.850525,111.342026 735.733704,111.968140 734.616150,111.969528 
	C726.257385,111.979897 717.898376,111.866783 709.351440,111.412430 
z"/>
<path fill="#DD99EE" opacity="1.000000" stroke="none" 
	d="
M82.147522,202.404999 
	C85.652206,204.525925 89.276573,206.958694 92.932144,209.746094 
	C89.397957,207.639420 85.832581,205.178131 82.147522,202.404999 
z"/>
<path fill="#DD99EE" opacity="1.000000" stroke="none" 
	d="
M73.639374,85.007721 
	C71.602104,87.929268 69.240036,90.957649 66.535011,94.018684 
	C68.566223,91.072403 70.940392,88.093475 73.639374,85.007721 
z"/>
<path fill="#CD75E7" opacity="1.000000" stroke="none" 
	d="
M55.985252,166.398041 
	C57.641350,169.439957 59.320568,172.874725 60.990250,176.703003 
	C59.323269,173.661301 57.665821,170.226089 55.985252,166.398041 
z"/>
<path fill="#DD99EE" opacity="1.000000" stroke="none" 
	d="
M93.040665,210.386261 
	C95.562660,211.151474 98.210953,212.259750 100.920029,213.727417 
	C98.376190,212.967651 95.771576,211.848480 93.040665,210.386261 
z"/>
<path fill="#DD99EE" opacity="1.000000" stroke="none" 
	d="
M76.794052,81.108017 
	C76.290909,82.385605 75.432762,83.624519 74.228889,84.915863 
	C74.735130,83.668648 75.587097,82.369003 76.794052,81.108017 
z"/>
<path fill="#1C1D59" opacity="1.000000" stroke="none" 
	d="
M32.133064,201.343124 
	C32.291767,201.553268 32.402386,202.087250 32.366623,202.792542 
	C32.175159,202.531555 32.130074,202.099274 32.133064,201.343124 
z"/>
<path fill="#DD99EE" opacity="1.000000" stroke="none" 
	d="
M101.029633,214.339996 
	C101.479691,214.156357 102.035759,214.288773 102.813614,214.611786 
	C102.402153,214.753586 101.768898,214.704819 101.029633,214.339996 
z"/>
<path fill="#1C1D59" opacity="1.000000" stroke="none" 
	d="
M32.739258,73.109573 
	C32.832611,73.463486 32.697014,74.001953 32.382294,74.753983 
	C32.305546,74.409744 32.407928,73.851936 32.739258,73.109573 
z"/>
<path fill="#7D60F1" opacity="1.000000" stroke="none" 
	d="
M118.738663,60.023033 
	C118.780762,60.200935 118.566986,60.457695 118.140221,60.849747 
	C118.112411,60.690647 118.297600,60.396267 118.738663,60.023033 
z"/>
<path fill="#CD75E7" opacity="1.000000" stroke="none" 
	d="
M55.735157,165.023773 
	C55.998333,165.136108 56.003963,165.314697 55.997215,165.761124 
	C55.815765,165.715988 55.646687,165.403015 55.735157,165.023773 
z"/>
<path fill="#CD75E7" opacity="1.000000" stroke="none" 
	d="
M61.724079,100.980591 
	C61.908810,101.208191 61.757542,101.474930 61.357773,101.852921 
	C61.276096,101.691261 61.369030,101.376450 61.724079,100.980591 
z"/>
<path fill="#1C1D59" opacity="1.000000" stroke="none" 
	d="
M32.380486,198.636230 
	C32.116077,159.637024 32.071239,120.290520 32.093708,80.479996 
	C32.440937,81.449913 32.963680,82.883583 32.965321,84.317833 
	C33.007713,121.329216 32.998829,158.340652 32.976860,195.352066 
	C32.976276,196.331085 32.731148,197.309982 32.380486,198.636230 
z"/>
<path fill="#797979" opacity="1.000000" stroke="none" 
	d="
M309.738892,72.250610 
	C310.041962,111.678185 310.028198,151.387726 310.034424,191.569199 
	C309.702423,190.660980 309.045105,189.281250 309.043152,187.900589 
	C308.989899,150.424820 309.000549,112.948967 309.023621,75.473137 
	C309.024231,74.492867 309.283447,73.512756 309.738892,72.250610 
z"/>
<path fill="#9B9B9B" opacity="1.000000" stroke="none" 
	d="
M354.502930,71.586258 
	C340.167358,71.905228 325.533508,71.954453 310.428131,72.028671 
	C310.642944,71.716515 311.329956,71.084137 312.015503,71.085770 
	C326.078644,71.119278 340.141602,71.225090 354.502930,71.586258 
z"/>
<path fill="#656565" opacity="1.000000" stroke="none" 
	d="
M310.268494,192.257446 
	C324.638458,191.982040 339.299927,192.010681 354.419495,192.067871 
	C354.455688,192.342407 354.032928,192.804718 353.611877,192.803162 
	C339.261139,192.749802 324.910583,192.652466 310.268494,192.257446 
z"/>
</svg>